<?xml version="1.0" encoding="UTF-8" standalone="no"?>
<svg width="29px" height="36px" viewBox="0 0 29 36" version="1.1" xmlns="http://www.w3.org/2000/svg" xmlns:xlink="http://www.w3.org/1999/xlink" xmlns:sketch="http://www.bohemiancoding.com/sketch/ns">
    <!-- Generator: Sketch 3.3.3 (12081) - http://www.bohemiancoding.com/sketch -->
    <title>Path</title>
    <desc>Created with Sketch.</desc>
    <defs></defs>
    <g id="Welcome" stroke="none" stroke-width="1" fill="none" fill-rule="evenodd" sketch:type="MSPage">
        <g id="Desktop" sketch:type="MSArtboardGroup" transform="translate(-296.000000, -45.000000)" fill="#FFFFFF">
            <path d="M296.823875,61.9659251 C296.823875,56.7433573 298.055194,52.6460384 300.517868,49.6738453 C302.980543,46.7016523 306.387898,45.215578 310.740038,45.215578 C315.134638,45.215578 318.563224,46.7016523 321.025898,49.6738453 C323.488572,52.6460384 324.719891,56.764587 324.719891,62.0296146 L324.719891,64.2269035 C324.719891,69.4707013 323.499187,73.5680202 321.057743,76.5189833 C318.616298,79.4699464 315.198328,80.9454058 310.803728,80.9454058 C306.387898,80.9454058 302.954005,79.464639 300.501946,76.5030609 C298.049887,73.5414829 296.823875,69.4282417 296.823875,64.163214 L296.823875,61.9659251 Z M311.18765,73.4602876 C318.796088,73.4602876 318.806329,66.0686062 318.796088,65.8518492 C318.57343,61.1387362 314.713645,60.6628716 312.651568,59.4996492 C310.806176,58.2619217 310.965439,56.1632802 311.603027,54.3708941 C312.651568,52.4971458 314.79097,51.6014832 314.79097,51.5407629 C314.79097,51.4800426 313.515793,51.3799959 312.085447,51.8996906 C310.655101,52.4193854 309.020794,53.6448053 308.36776,54.3708941 C308.36776,54.3708941 303.579212,58.1604403 303.579212,65.8518492 C303.579212,65.8519215 303.579212,73.4602876 311.18765,73.4602876 Z" id="Path" sketch:type="MSShapeGroup"></path>
        </g>
    </g>
</svg>