<?xml version="1.0" encoding="UTF-8" standalone="no"?>
<svg width="185px" height="63px" viewBox="0 0 185 63" version="1.1" xmlns="http://www.w3.org/2000/svg" xmlns:xlink="http://www.w3.org/1999/xlink" xmlns:sketch="http://www.bohemiancoding.com/sketch/ns">
    <!-- Generator: Sketch 3.3.3 (12081) - http://www.bohemiancoding.com/sketch -->
    <title>Droplet Logo</title>
    <desc>Created with Sketch.</desc>
    <defs></defs>
    <g id="Welcome" stroke="none" stroke-width="1" fill="none" fill-rule="evenodd" sketch:type="MSPage">
        <g id="Desktop" sketch:type="MSArtboardGroup" transform="translate(-53.000000, -32.000000)" fill="#FFFFFF">
            <g id="Header" sketch:type="MSLayerGroup" transform="translate(42.000000, 24.000000)">
                <path d="M11,56.9135611 L11,10.5475813 L23.260235,10.5475813 C28.6738724,10.5475813 32.9887951,12.2671815 36.2051325,15.7064335 C39.42147,19.1456854 41.0614591,23.8586637 41.1251489,29.8455097 L41.1251489,37.3608746 C41.1251489,43.4538703 39.5170043,48.2358449 36.3006668,51.7069418 C33.0843294,55.1780387 28.6526437,56.9135611 23.0054769,56.9135611 L11,56.9135611 Z M20.3623613,18.3495491 L20.3623613,49.1434381 L23.1647007,49.1434381 C26.2855034,49.1434381 28.4827703,48.3207899 29.7565674,46.6754687 C31.0303644,45.0301475 31.6990978,42.1906843 31.7627876,38.1569937 L31.7627876,30.1002678 C31.7627876,25.769358 31.1577431,22.7494428 29.947636,21.0404318 C28.7375288,19.3314208 26.6782545,18.4344689 23.7697513,18.3495491 L20.3623613,18.3495491 Z M64.4036731,31.1511451 L61.4102651,30.896387 C58.9475909,30.896387 57.2810647,31.9790982 56.4106368,34.1445532 L56.4106368,56.9135611 L47.3667231,56.9135611 L47.3667231,22.4575239 L55.8692758,22.4575239 L56.1240339,26.1833616 C57.5464406,23.2748584 59.5101815,21.8206286 62.0153157,21.8206286 C63.0343533,21.8206286 63.8623089,21.9586212 64.4992074,22.2346105 L64.4036731,31.1511451 Z M66.8238754,38.5709757 C66.8238754,33.3484079 68.055194,29.2510889 70.5178683,26.2788959 C72.9805425,23.3067028 76.3878984,21.8206286 80.7400383,21.8206286 C85.134638,21.8206286 88.5632235,23.3067028 91.0258978,26.2788959 C93.488572,29.2510889 94.7198907,33.3696375 94.7198907,38.6346652 L94.7198907,40.8319541 C94.7198907,46.0757518 93.4991868,50.1730708 91.0577425,53.1240339 C88.6162983,56.074997 85.1983275,57.5504564 80.8037278,57.5504564 C76.3878981,57.5504564 72.9540051,56.0696896 70.5019459,53.1081115 C68.0498866,50.1465334 66.8238754,46.0332922 66.8238754,40.7682645 L66.8238754,38.5709757 Z M127.169708,40.7682645 C127.169708,46.1819019 126.240911,50.3322949 124.383291,53.2195682 C122.52567,56.1068414 119.76051,57.5504564 116.087729,57.5504564 C113.285375,57.5504564 111.035034,56.4146711 109.336638,54.1430664 L109.336638,70.1609839 L100.32457,70.1609839 L100.32457,22.4575239 L108.667898,22.4575239 L108.986346,25.6101558 C110.705972,23.0837917 113.051846,21.8206286 116.024039,21.8206286 C119.696821,21.8206286 122.46198,23.1580954 124.319601,25.8330691 C126.177222,28.5080429 127.127248,32.6053618 127.169708,38.1251489 L127.169708,40.7682645 Z M118.189483,38.5072861 C118.189483,35.1741839 117.823272,32.8176948 117.090839,31.437748 C116.358406,30.0578012 115.12178,29.3678382 113.380924,29.3678382 C111.533918,29.3678382 110.185836,30.1427198 109.336638,31.6925061 L109.336638,47.8378027 C110.143377,49.3238992 111.512688,50.0669363 113.444613,50.0669363 C115.227929,50.0669363 116.464555,49.3132844 117.154529,47.8059579 C117.844502,46.2986314 118.189483,43.9527571 118.189483,40.7682645 L118.189483,38.5072861 Z M142.073058,56.9135611 L133.029145,56.9135611 L133.029145,8 L142.073058,8 L142.073058,56.9135611 Z M162.963225,57.5504564 C158.335096,57.5504564 154.726058,56.1705303 152.136004,53.4106368 C149.54595,50.6507432 148.250943,46.7020317 148.250943,41.5643837 L148.250943,38.8257338 C148.250943,33.3908665 149.439802,29.1980142 151.817557,26.2470511 C154.195311,23.296088 157.602667,21.8206286 162.039727,21.8206286 C166.370637,21.8206286 169.629385,23.2058621 171.81607,25.9763706 C174.002755,28.7468791 175.117311,32.8495055 175.15977,38.2843728 L175.15977,42.7107953 L157.231167,42.7107953 C157.358547,45.2583893 157.921132,47.1212895 158.91894,48.2995518 C159.916747,49.477814 161.455896,50.0669363 163.536431,50.0669363 C166.551084,50.0669363 169.066795,49.0372992 171.08364,46.977994 L174.618409,52.423449 C173.514452,53.9520055 171.911615,55.1886315 169.80985,56.1333643 C167.708085,57.0780971 165.425899,57.5504564 162.963225,57.5504564 L162.963225,57.5504564 Z M157.294857,36.4055316 L166.306925,36.4055316 L166.306925,35.5775676 C166.264465,33.5182625 165.924791,31.9578845 165.287893,30.896387 C164.650994,29.8348895 163.547053,29.3041487 161.976037,29.3041487 C160.405021,29.3041487 159.263928,29.8667339 158.552725,30.9919213 C157.841521,32.1171087 157.422236,33.9216274 157.294857,36.4055316 L157.294857,36.4055316 Z M190.731861,13.9868161 L190.731861,22.4575239 L195.349352,22.4575239 L195.349352,29.2404591 L190.731861,29.2404591 L190.731861,46.3410987 C190.731861,47.6998155 190.91762,48.6339193 191.289145,49.1434381 C191.660669,49.6529569 192.377169,49.9077125 193.438666,49.9077125 C194.309094,49.9077125 195.020287,49.8334088 195.572266,49.6847991 L195.508576,56.6906477 C193.98002,57.2638564 192.324108,57.5504564 190.540793,57.5504564 C184.723786,57.5504564 181.783482,54.2174042 181.719792,47.5511998 L181.719792,29.2404591 L177.739196,29.2404591 L177.739196,22.4575239 L181.719792,22.4575239 L181.719792,13.9868161 L190.731861,13.9868161 Z M81.1876501,50.0653381 C88.7960885,50.0653381 88.8063286,42.6736567 88.7960885,42.4568998 C88.57343,37.7437868 84.7136446,37.2679221 82.6515681,36.1046998 C80.8061758,34.8669723 80.9654387,32.7683308 81.6030274,30.9759447 C82.651568,29.1021963 84.7909701,28.2065337 84.7909701,28.1458134 C84.7909701,28.0850931 83.5157934,27.9850465 82.0854472,28.5047412 C80.655101,29.0244359 79.0207936,30.2498558 78.3677605,30.9759447 C78.3677605,30.9759447 73.5792118,34.7654908 73.5792118,42.4568998 C73.5792118,42.4569721 73.5792118,50.0653381 81.1876501,50.0653381 Z" id="Droplet-Logo" sketch:type="MSShapeGroup"></path>
            </g>
        </g>
    </g>
</svg>